<?xml version="1.0" standalone="no"?>
<!DOCTYPE svg PUBLIC "-//W3C//DTD SVG 20010904//EN"
 "http://www.w3.org/TR/2001/REC-SVG-20010904/DTD/svg10.dtd">
<svg version="1.0" xmlns="http://www.w3.org/2000/svg"
 width="500.000000pt" height="500.000000pt" viewBox="0 0 500.000000 500.000000"
 preserveAspectRatio="xMidYMid meet">
<metadata>
Created by potrace 1.11, written by Peter Selinger 2001-2013
</metadata>
<g transform="translate(0.000000,500.000000) scale(0.100000,-0.100000)"
fill="#000000" stroke="none">
<path d="M3663 4517 c-16 -4 -38 -15 -50 -25 -12 -9 -95 -149 -184 -310 -124
-224 -166 -292 -178 -288 -48 15 -118 40 -132 46 -24 12 -216 48 -289 55 -71
6 -228 7 -300 1 -94 -8 -186 -18 -200 -21 -8 -3 -33 -7 -55 -10 -137 -19 -269
-67 -337 -121 -37 -30 -69 -76 -64 -93 73 -265 81 -296 92 -381 3 -25 7 -52 9
-60 2 -8 7 -42 10 -75 3 -33 8 -73 10 -90 2 -16 6 -57 10 -90 3 -33 10 -80 15
-105 5 -25 12 -189 16 -365 4 -176 9 -356 11 -400 2 -44 6 -123 8 -175 3 -52
9 -165 14 -250 5 -85 10 -193 10 -240 0 -47 2 -95 5 -107 3 -14 0 -23 -7 -23
-8 0 -9 -3 -1 -8 6 -4 11 -34 12 -67 4 -151 10 -195 30 -220 11 -14 23 -25 28
-25 4 0 17 -8 28 -19 12 -10 53 -35 91 -56 39 -21 75 -40 80 -44 29 -17 120
-42 192 -52 129 -19 232 -1 356 61 102 51 121 64 188 125 39 35 40 38 44 113
7 127 14 332 20 602 3 140 8 320 10 400 3 80 7 286 10 458 2 172 6 316 9 320
3 5 5 44 6 88 1 84 10 144 66 431 31 163 64 269 107 348 6 11 51 92 100 180
49 88 108 194 130 235 22 41 52 95 67 120 l26 45 207 3 207 2 0 45 c0 36 -4
45 -17 46 -128 4 -389 2 -410 -4z"/>
</g>
</svg>
